<mxfile modified="2021-11-01T06:22:32.671Z" host="app.diagrams.net" agent="5.0 (Windows NT 10.0; Win64; x64) AppleWebKit/537.36 (KHTML, like Gecko) Chrome/95.0.4638.54 Safari/537.36" etag="NWmduBSEGBM_k3cQeUIy" version="15.6.3" type="github" pages="2">
  <diagram id="TniNXG83DVIHnhaAD-jW" name="第2頁">
    <mxGraphModel dx="1038" dy="491" grid="1" gridSize="10" guides="1" tooltips="1" connect="1" arrows="1" fold="1" page="1" pageScale="1" pageWidth="827" pageHeight="1169" math="0" shadow="0">
      <root>
        <mxCell id="hA78sCCtqHbBmqeCP7ZG-0" />
        <mxCell id="hA78sCCtqHbBmqeCP7ZG-1" parent="hA78sCCtqHbBmqeCP7ZG-0" />
        <mxCell id="Gy-rikKVHj1XyLaEl59o-0" value="顧客" style="shape=umlActor;verticalLabelPosition=bottom;verticalAlign=top;html=1;" vertex="1" parent="hA78sCCtqHbBmqeCP7ZG-1">
          <mxGeometry x="260" y="230" width="30" height="60" as="geometry" />
        </mxCell>
        <mxCell id="Gy-rikKVHj1XyLaEl59o-1" value="ATM技術人員" style="shape=umlActor;verticalLabelPosition=bottom;verticalAlign=top;html=1;" vertex="1" parent="hA78sCCtqHbBmqeCP7ZG-1">
          <mxGeometry x="280" y="680" width="30" height="60" as="geometry" />
        </mxCell>
        <mxCell id="Gy-rikKVHj1XyLaEl59o-2" value="" style="image;html=1;image=img/lib/clip_art/finance/Piggy_Bank_128x128.png" vertex="1" parent="hA78sCCtqHbBmqeCP7ZG-1">
          <mxGeometry x="980" y="360" width="80" height="80" as="geometry" />
        </mxCell>
        <mxCell id="Gy-rikKVHj1XyLaEl59o-3" value="銀行" style="text;html=1;align=center;verticalAlign=middle;resizable=0;points=[];autosize=1;strokeColor=none;fillColor=none;" vertex="1" parent="hA78sCCtqHbBmqeCP7ZG-1">
          <mxGeometry x="1000" y="440" width="40" height="20" as="geometry" />
        </mxCell>
        <mxCell id="k0XR3lNtC0I-mAS3S0c3-14" style="edgeStyle=none;rounded=0;orthogonalLoop=1;jettySize=auto;html=1;exitX=0.5;exitY=0;exitDx=0;exitDy=0;entryX=0.64;entryY=1.009;entryDx=0;entryDy=0;entryPerimeter=0;" edge="1" parent="hA78sCCtqHbBmqeCP7ZG-1" source="Gy-rikKVHj1XyLaEl59o-12" target="k0XR3lNtC0I-mAS3S0c3-1">
          <mxGeometry relative="1" as="geometry" />
        </mxCell>
        <mxCell id="Gy-rikKVHj1XyLaEl59o-12" value="提款" style="ellipse;" vertex="1" parent="hA78sCCtqHbBmqeCP7ZG-1">
          <mxGeometry x="630" y="470" width="70" height="40" as="geometry" />
        </mxCell>
        <mxCell id="k0XR3lNtC0I-mAS3S0c3-13" style="edgeStyle=none;rounded=0;orthogonalLoop=1;jettySize=auto;html=1;exitX=0.5;exitY=0;exitDx=0;exitDy=0;entryX=0.427;entryY=1.043;entryDx=0;entryDy=0;entryPerimeter=0;" edge="1" parent="hA78sCCtqHbBmqeCP7ZG-1" source="Gy-rikKVHj1XyLaEl59o-13" target="k0XR3lNtC0I-mAS3S0c3-1">
          <mxGeometry relative="1" as="geometry" />
        </mxCell>
        <mxCell id="Gy-rikKVHj1XyLaEl59o-13" value="存款" style="ellipse;" vertex="1" parent="hA78sCCtqHbBmqeCP7ZG-1">
          <mxGeometry x="520" y="470" width="70" height="40" as="geometry" />
        </mxCell>
        <mxCell id="k0XR3lNtC0I-mAS3S0c3-15" style="edgeStyle=none;rounded=0;orthogonalLoop=1;jettySize=auto;html=1;exitX=0;exitY=0;exitDx=0;exitDy=0;entryX=1;entryY=1;entryDx=0;entryDy=0;" edge="1" parent="hA78sCCtqHbBmqeCP7ZG-1" source="Gy-rikKVHj1XyLaEl59o-14" target="k0XR3lNtC0I-mAS3S0c3-1">
          <mxGeometry relative="1" as="geometry" />
        </mxCell>
        <mxCell id="Gy-rikKVHj1XyLaEl59o-14" value="餘額查詢" style="ellipse;" vertex="1" parent="hA78sCCtqHbBmqeCP7ZG-1">
          <mxGeometry x="710" y="430" width="70" height="40" as="geometry" />
        </mxCell>
        <mxCell id="k0XR3lNtC0I-mAS3S0c3-12" style="edgeStyle=none;rounded=0;orthogonalLoop=1;jettySize=auto;html=1;exitX=1;exitY=0.5;exitDx=0;exitDy=0;entryX=0.227;entryY=0.997;entryDx=0;entryDy=0;entryPerimeter=0;" edge="1" parent="hA78sCCtqHbBmqeCP7ZG-1" source="Gy-rikKVHj1XyLaEl59o-15" target="k0XR3lNtC0I-mAS3S0c3-1">
          <mxGeometry relative="1" as="geometry" />
        </mxCell>
        <mxCell id="Gy-rikKVHj1XyLaEl59o-15" value="轉帳" style="ellipse;" vertex="1" parent="hA78sCCtqHbBmqeCP7ZG-1">
          <mxGeometry x="440" y="430" width="70" height="40" as="geometry" />
        </mxCell>
        <mxCell id="k0XR3lNtC0I-mAS3S0c3-16" style="edgeStyle=none;rounded=0;orthogonalLoop=1;jettySize=auto;html=1;exitX=0;exitY=0.5;exitDx=0;exitDy=0;entryX=0.987;entryY=0.62;entryDx=0;entryDy=0;entryPerimeter=0;" edge="1" parent="hA78sCCtqHbBmqeCP7ZG-1" source="Gy-rikKVHj1XyLaEl59o-25" target="k0XR3lNtC0I-mAS3S0c3-1">
          <mxGeometry relative="1" as="geometry" />
        </mxCell>
        <mxCell id="Gy-rikKVHj1XyLaEl59o-25" value="密碼變更" style="ellipse;" vertex="1" parent="hA78sCCtqHbBmqeCP7ZG-1">
          <mxGeometry x="770" y="380" width="70" height="40" as="geometry" />
        </mxCell>
        <mxCell id="k0XR3lNtC0I-mAS3S0c3-11" style="edgeStyle=none;rounded=0;orthogonalLoop=1;jettySize=auto;html=1;exitX=1;exitY=0.5;exitDx=0;exitDy=0;" edge="1" parent="hA78sCCtqHbBmqeCP7ZG-1" source="Gy-rikKVHj1XyLaEl59o-26" target="k0XR3lNtC0I-mAS3S0c3-1">
          <mxGeometry relative="1" as="geometry" />
        </mxCell>
        <mxCell id="Gy-rikKVHj1XyLaEl59o-26" value="繳稅" style="ellipse;" vertex="1" parent="hA78sCCtqHbBmqeCP7ZG-1">
          <mxGeometry x="378.5" y="380" width="70" height="40" as="geometry" />
        </mxCell>
        <mxCell id="Gy-rikKVHj1XyLaEl59o-27" value="語言" style="ellipse;" vertex="1" parent="hA78sCCtqHbBmqeCP7ZG-1">
          <mxGeometry x="570" y="130" width="70" height="40" as="geometry" />
        </mxCell>
        <mxCell id="Gy-rikKVHj1XyLaEl59o-29" value="維護" style="ellipse;" vertex="1" parent="hA78sCCtqHbBmqeCP7ZG-1">
          <mxGeometry x="480" y="640" width="70" height="40" as="geometry" />
        </mxCell>
        <mxCell id="Gy-rikKVHj1XyLaEl59o-30" value="修理" style="ellipse;" vertex="1" parent="hA78sCCtqHbBmqeCP7ZG-1">
          <mxGeometry x="480" y="750" width="70" height="40" as="geometry" />
        </mxCell>
        <mxCell id="k0XR3lNtC0I-mAS3S0c3-1" value="ATM交易系統" style="ellipse;" vertex="1" parent="hA78sCCtqHbBmqeCP7ZG-1">
          <mxGeometry x="550" y="310" width="120" height="70" as="geometry" />
        </mxCell>
        <mxCell id="k0XR3lNtC0I-mAS3S0c3-4" value="" style="endArrow=none;startArrow=none;endFill=0;startFill=0;endSize=8;html=1;verticalAlign=bottom;labelBackgroundColor=none;strokeWidth=3;rounded=0;entryX=0;entryY=0.5;entryDx=0;entryDy=0;" edge="1" parent="hA78sCCtqHbBmqeCP7ZG-1" target="Gy-rikKVHj1XyLaEl59o-27">
          <mxGeometry width="160" relative="1" as="geometry">
            <mxPoint x="290" y="260" as="sourcePoint" />
            <mxPoint x="460" y="259.5" as="targetPoint" />
          </mxGeometry>
        </mxCell>
        <mxCell id="k0XR3lNtC0I-mAS3S0c3-5" value="" style="endArrow=none;startArrow=none;endFill=0;startFill=0;endSize=8;html=1;verticalAlign=bottom;labelBackgroundColor=none;strokeWidth=3;rounded=0;entryX=0;entryY=0.5;entryDx=0;entryDy=0;" edge="1" parent="hA78sCCtqHbBmqeCP7ZG-1" target="k0XR3lNtC0I-mAS3S0c3-1">
          <mxGeometry width="160" relative="1" as="geometry">
            <mxPoint x="290" y="260" as="sourcePoint" />
            <mxPoint x="540" y="340" as="targetPoint" />
          </mxGeometry>
        </mxCell>
        <mxCell id="k0XR3lNtC0I-mAS3S0c3-6" style="edgeStyle=none;rounded=0;orthogonalLoop=1;jettySize=auto;html=1;entryX=0;entryY=0.5;entryDx=0;entryDy=0;" edge="1" parent="hA78sCCtqHbBmqeCP7ZG-1" source="k0XR3lNtC0I-mAS3S0c3-1" target="k0XR3lNtC0I-mAS3S0c3-1">
          <mxGeometry relative="1" as="geometry" />
        </mxCell>
        <mxCell id="k0XR3lNtC0I-mAS3S0c3-7" style="edgeStyle=none;rounded=0;orthogonalLoop=1;jettySize=auto;html=1;entryX=0;entryY=0.5;entryDx=0;entryDy=0;" edge="1" parent="hA78sCCtqHbBmqeCP7ZG-1" source="k0XR3lNtC0I-mAS3S0c3-1" target="k0XR3lNtC0I-mAS3S0c3-1">
          <mxGeometry relative="1" as="geometry" />
        </mxCell>
        <mxCell id="k0XR3lNtC0I-mAS3S0c3-17" value="" style="endArrow=none;startArrow=none;endFill=0;startFill=0;endSize=8;html=1;verticalAlign=bottom;labelBackgroundColor=none;strokeWidth=3;rounded=0;entryX=0;entryY=0.5;entryDx=0;entryDy=0;exitX=0.947;exitY=0.277;exitDx=0;exitDy=0;exitPerimeter=0;" edge="1" parent="hA78sCCtqHbBmqeCP7ZG-1" source="k0XR3lNtC0I-mAS3S0c3-1" target="Gy-rikKVHj1XyLaEl59o-2">
          <mxGeometry width="160" relative="1" as="geometry">
            <mxPoint x="670" y="340" as="sourcePoint" />
            <mxPoint x="830" y="340" as="targetPoint" />
          </mxGeometry>
        </mxCell>
        <mxCell id="k0XR3lNtC0I-mAS3S0c3-18" value="身分驗證" style="ellipse;" vertex="1" parent="hA78sCCtqHbBmqeCP7ZG-1">
          <mxGeometry x="680" y="210" width="70" height="40" as="geometry" />
        </mxCell>
        <mxCell id="k0XR3lNtC0I-mAS3S0c3-19" value="&amp;lt;&amp;lt;include&amp;gt;&amp;gt;" style="html=1;verticalAlign=bottom;labelBackgroundColor=none;endArrow=open;endFill=0;dashed=1;rounded=0;entryX=0;entryY=0.75;entryDx=0;entryDy=0;entryPerimeter=0;exitX=0.733;exitY=-0.02;exitDx=0;exitDy=0;exitPerimeter=0;" edge="1" parent="hA78sCCtqHbBmqeCP7ZG-1" source="k0XR3lNtC0I-mAS3S0c3-1" target="k0XR3lNtC0I-mAS3S0c3-18">
          <mxGeometry width="160" relative="1" as="geometry">
            <mxPoint x="510" y="280" as="sourcePoint" />
            <mxPoint x="670" y="280" as="targetPoint" />
          </mxGeometry>
        </mxCell>
        <mxCell id="k0XR3lNtC0I-mAS3S0c3-21" value="升級" style="ellipse;" vertex="1" parent="hA78sCCtqHbBmqeCP7ZG-1">
          <mxGeometry x="650" y="620" width="70" height="40" as="geometry" />
        </mxCell>
        <mxCell id="k0XR3lNtC0I-mAS3S0c3-22" value="診斷" style="ellipse;" vertex="1" parent="hA78sCCtqHbBmqeCP7ZG-1">
          <mxGeometry x="650" y="710" width="70" height="40" as="geometry" />
        </mxCell>
        <mxCell id="k0XR3lNtC0I-mAS3S0c3-23" value="補充" style="ellipse;" vertex="1" parent="hA78sCCtqHbBmqeCP7ZG-1">
          <mxGeometry x="650" y="545" width="70" height="40" as="geometry" />
        </mxCell>
        <mxCell id="k0XR3lNtC0I-mAS3S0c3-26" value="" style="endArrow=none;startArrow=none;endFill=0;startFill=0;endSize=8;html=1;verticalAlign=bottom;labelBackgroundColor=none;strokeWidth=3;rounded=0;entryX=0;entryY=0.5;entryDx=0;entryDy=0;" edge="1" parent="hA78sCCtqHbBmqeCP7ZG-1" target="Gy-rikKVHj1XyLaEl59o-29">
          <mxGeometry width="160" relative="1" as="geometry">
            <mxPoint x="320" y="709" as="sourcePoint" />
            <mxPoint x="480" y="709" as="targetPoint" />
          </mxGeometry>
        </mxCell>
        <mxCell id="k0XR3lNtC0I-mAS3S0c3-27" value="" style="endArrow=none;startArrow=none;endFill=0;startFill=0;endSize=8;html=1;verticalAlign=bottom;labelBackgroundColor=none;strokeWidth=3;rounded=0;entryX=0;entryY=0.5;entryDx=0;entryDy=0;" edge="1" parent="hA78sCCtqHbBmqeCP7ZG-1" target="Gy-rikKVHj1XyLaEl59o-30">
          <mxGeometry width="160" relative="1" as="geometry">
            <mxPoint x="320" y="710" as="sourcePoint" />
            <mxPoint x="480" y="710" as="targetPoint" />
          </mxGeometry>
        </mxCell>
        <mxCell id="k0XR3lNtC0I-mAS3S0c3-28" value="&amp;lt;&amp;lt;include&amp;gt;&amp;gt;" style="html=1;verticalAlign=bottom;labelBackgroundColor=none;endArrow=open;endFill=0;dashed=1;rounded=0;entryX=0;entryY=0.5;entryDx=0;entryDy=0;exitX=0.5;exitY=0;exitDx=0;exitDy=0;" edge="1" parent="hA78sCCtqHbBmqeCP7ZG-1" source="Gy-rikKVHj1XyLaEl59o-29" target="k0XR3lNtC0I-mAS3S0c3-23">
          <mxGeometry width="160" relative="1" as="geometry">
            <mxPoint x="520" y="640" as="sourcePoint" />
            <mxPoint x="680" y="640" as="targetPoint" />
          </mxGeometry>
        </mxCell>
        <mxCell id="k0XR3lNtC0I-mAS3S0c3-29" value="&amp;lt;&amp;lt;include&amp;gt;&amp;gt;" style="html=1;verticalAlign=bottom;labelBackgroundColor=none;endArrow=open;endFill=0;dashed=1;rounded=0;entryX=0;entryY=0.5;entryDx=0;entryDy=0;exitX=1;exitY=0.5;exitDx=0;exitDy=0;" edge="1" parent="hA78sCCtqHbBmqeCP7ZG-1" source="Gy-rikKVHj1XyLaEl59o-29" target="k0XR3lNtC0I-mAS3S0c3-21">
          <mxGeometry width="160" relative="1" as="geometry">
            <mxPoint x="435" y="649.5" as="sourcePoint" />
            <mxPoint x="595" y="649.5" as="targetPoint" />
          </mxGeometry>
        </mxCell>
        <mxCell id="k0XR3lNtC0I-mAS3S0c3-31" value="&amp;lt;&amp;lt;include&amp;gt;&amp;gt;" style="html=1;verticalAlign=bottom;labelBackgroundColor=none;endArrow=open;endFill=0;dashed=1;rounded=0;exitX=1;exitY=1;exitDx=0;exitDy=0;entryX=0;entryY=0.5;entryDx=0;entryDy=0;" edge="1" parent="hA78sCCtqHbBmqeCP7ZG-1" source="Gy-rikKVHj1XyLaEl59o-29" target="k0XR3lNtC0I-mAS3S0c3-22">
          <mxGeometry width="160" relative="1" as="geometry">
            <mxPoint x="580" y="720" as="sourcePoint" />
            <mxPoint x="740" y="720" as="targetPoint" />
          </mxGeometry>
        </mxCell>
        <mxCell id="k0XR3lNtC0I-mAS3S0c3-32" value="&amp;lt;&amp;lt;include&amp;gt;&amp;gt;" style="html=1;verticalAlign=bottom;labelBackgroundColor=none;endArrow=open;endFill=0;dashed=1;rounded=0;exitX=1;exitY=0.5;exitDx=0;exitDy=0;entryX=0;entryY=0.5;entryDx=0;entryDy=0;" edge="1" parent="hA78sCCtqHbBmqeCP7ZG-1" source="Gy-rikKVHj1XyLaEl59o-30" target="k0XR3lNtC0I-mAS3S0c3-22">
          <mxGeometry width="160" relative="1" as="geometry">
            <mxPoint x="580" y="720" as="sourcePoint" />
            <mxPoint x="740" y="720" as="targetPoint" />
          </mxGeometry>
        </mxCell>
        <mxCell id="k0XR3lNtC0I-mAS3S0c3-33" value="" style="endArrow=none;startArrow=none;endFill=0;startFill=0;endSize=8;html=1;verticalAlign=bottom;labelBackgroundColor=none;strokeWidth=3;rounded=0;edgeStyle=orthogonalEdgeStyle;exitX=1;exitY=0.5;exitDx=0;exitDy=0;entryX=0.43;entryY=1.07;entryDx=0;entryDy=0;entryPerimeter=0;" edge="1" parent="hA78sCCtqHbBmqeCP7ZG-1" source="Gy-rikKVHj1XyLaEl59o-30" target="Gy-rikKVHj1XyLaEl59o-3">
          <mxGeometry width="160" relative="1" as="geometry">
            <mxPoint x="580" y="820" as="sourcePoint" />
            <mxPoint x="1040" y="670" as="targetPoint" />
          </mxGeometry>
        </mxCell>
      </root>
    </mxGraphModel>
  </diagram>
  <diagram id="fPUA-GVwy3mPU0tX2Xv3" name="第3頁">
    <mxGraphModel dx="1038" dy="491" grid="1" gridSize="10" guides="1" tooltips="1" connect="1" arrows="1" fold="1" page="1" pageScale="1" pageWidth="827" pageHeight="1169" math="0" shadow="0">
      <root>
        <mxCell id="2K_9lExNW0-oMNbp71sJ-0" />
        <mxCell id="2K_9lExNW0-oMNbp71sJ-1" parent="2K_9lExNW0-oMNbp71sJ-0" />
      </root>
    </mxGraphModel>
  </diagram>
</mxfile>
